solid solidname
 facet normal 0 0 -1
  outer loop
    vertex -13.8032 -21.222 0
    vertex -13.8032 -41.222 0
    vertex -33.8032 -41.222 0
  endloop
 endfacet
 facet normal 0 0 -1
  outer loop
    vertex -13.8032 -21.222 0
    vertex -33.8032 -41.222 0
    vertex -33.8032 -21.222 0
  endloop
 endfacet
 facet normal 0 0 1
  outer loop
    vertex -13.8032 -21.222 10
    vertex -33.8032 -21.222 10
    vertex -33.8032 -41.222 10
  endloop
 endfacet
 facet normal 0 0 1
  outer loop
    vertex -13.8032 -21.222 10
    vertex -33.8032 -41.222 10
    vertex -13.8032 -41.222 10
  endloop
 endfacet
 facet normal 1 -5.72205e-07 -4.76837e-07
  outer loop
    vertex -13.8032 -21.222 0
    vertex -13.8032 -21.222 10
    vertex -13.8032 -41.222 10
  endloop
 endfacet
 facet normal 1 0 6.67572e-07
  outer loop
    vertex -13.8032 -21.222 0
    vertex -13.8032 -41.222 10
    vertex -13.8032 -41.222 0
  endloop
 endfacet
 facet normal -3.8147e-07 -1 -3.8147e-07
  outer loop
    vertex -13.8032 -41.222 0
    vertex -13.8032 -41.222 10
    vertex -33.8032 -41.222 10
  endloop
 endfacet
 facet normal -1.90735e-07 -1 -7.27596e-14
  outer loop
    vertex -13.8032 -41.222 0
    vertex -33.8032 -41.222 10
    vertex -33.8032 -41.222 0
  endloop
 endfacet
 facet normal -1 1.90735e-07 -3.8147e-07
  outer loop
    vertex -33.8032 -41.222 0
    vertex -33.8032 -41.222 10
    vertex -33.8032 -21.222 10
  endloop
 endfacet
 facet normal -1 1.90735e-07 -3.8147e-07
  outer loop
    vertex -33.8032 -41.222 0
    vertex -33.8032 -21.222 10
    vertex -33.8032 -21.222 0
  endloop
 endfacet
 facet normal 2.86103e-07 1 5.72204e-07
  outer loop
    vertex -13.8032 -21.222 10
    vertex -13.8032 -21.222 0
    vertex -33.8032 -21.222 0
  endloop
 endfacet
 facet normal 3.8147e-07 1 3.8147e-07
  outer loop
    vertex -13.8032 -21.222 10
    vertex -33.8032 -21.222 0
    vertex -33.8032 -21.222 10
  endloop
 endfacet
endsolid solidname
