solid solidname
 facet normal 0 0 -1
  outer loop
    vertex 92.0558 40.9098 0
    vertex 92.0558 20.9098 0
    vertex 72.0558 20.9098 0
  endloop
 endfacet
 facet normal 0 0 -1
  outer loop
    vertex 92.0558 40.9098 0
    vertex 72.0558 20.9098 0
    vertex 72.0558 40.9098 0
  endloop
 endfacet
 facet normal 0 0 1
  outer loop
    vertex 92.0558 40.9098 10
    vertex 72.0558 40.9098 10
    vertex 72.0558 20.9098 10
  endloop
 endfacet
 facet normal 0 0 1
  outer loop
    vertex 92.0558 40.9098 10
    vertex 72.0558 20.9098 10
    vertex 92.0558 20.9098 10
  endloop
 endfacet
 facet normal 1 -3.8147e-07 -7.6294e-07
  outer loop
    vertex 92.0558 40.9098 0
    vertex 92.0558 40.9098 10
    vertex 92.0558 20.9098 10
  endloop
 endfacet
 facet normal 1 0 0
  outer loop
    vertex 92.0558 40.9098 0
    vertex 92.0558 20.9098 10
    vertex 92.0558 20.9098 0
  endloop
 endfacet
 facet normal -3.8147e-07 -1 -3.8147e-07
  outer loop
    vertex 92.0558 20.9098 0
    vertex 92.0558 20.9098 10
    vertex 72.0558 20.9098 10
  endloop
 endfacet
 facet normal -1.90735e-07 -1 -1.45519e-13
  outer loop
    vertex 92.0558 20.9098 0
    vertex 72.0558 20.9098 10
    vertex 72.0558 20.9098 0
  endloop
 endfacet
 facet normal -1 3.8147e-07 -7.62939e-07
  outer loop
    vertex 72.0558 20.9098 0
    vertex 72.0558 20.9098 10
    vertex 72.0558 40.9098 10
  endloop
 endfacet
 facet normal -1 0 0
  outer loop
    vertex 72.0558 20.9098 0
    vertex 72.0558 40.9098 10
    vertex 72.0558 40.9098 0
  endloop
 endfacet
 facet normal 3.8147e-07 1 3.81469e-07
  outer loop
    vertex 92.0558 40.9098 10
    vertex 92.0558 40.9098 0
    vertex 72.0558 40.9098 0
  endloop
 endfacet
 facet normal 3.8147e-07 1 3.8147e-07
  outer loop
    vertex 92.0558 40.9098 10
    vertex 72.0558 40.9098 0
    vertex 72.0558 40.9098 10
  endloop
 endfacet
endsolid solidname
