solid solidname
 facet normal 0 0 -1
  outer loop
    vertex -69.7845 44.0774 0
    vertex -69.7845 24.0774 0
    vertex -89.7845 24.0774 0
  endloop
 endfacet
 facet normal 0 0 -1
  outer loop
    vertex -69.7845 44.0774 0
    vertex -89.7845 24.0774 0
    vertex -89.7845 44.0774 0
  endloop
 endfacet
 facet normal 0 0 1
  outer loop
    vertex -69.7845 44.0774 10
    vertex -89.7845 44.0774 10
    vertex -89.7845 24.0774 10
  endloop
 endfacet
 facet normal 0 0 1
  outer loop
    vertex -69.7845 44.0774 10
    vertex -89.7845 24.0774 10
    vertex -69.7845 24.0774 10
  endloop
 endfacet
 facet normal 1 -7.6294e-07 -7.6294e-07
  outer loop
    vertex -69.7845 44.0774 0
    vertex -69.7845 44.0774 10
    vertex -69.7845 24.0774 10
  endloop
 endfacet
 facet normal 1 0 7.62939e-07
  outer loop
    vertex -69.7845 44.0774 0
    vertex -69.7845 24.0774 10
    vertex -69.7845 24.0774 0
  endloop
 endfacet
 facet normal -3.8147e-07 -1 -3.8147e-07
  outer loop
    vertex -69.7845 24.0774 0
    vertex -69.7845 24.0774 10
    vertex -89.7845 24.0774 10
  endloop
 endfacet
 facet normal -1.90735e-07 -1 0
  outer loop
    vertex -69.7845 24.0774 0
    vertex -89.7845 24.0774 10
    vertex -89.7845 24.0774 0
  endloop
 endfacet
 facet normal -1 3.8147e-07 0
  outer loop
    vertex -89.7845 24.0774 0
    vertex -89.7845 24.0774 10
    vertex -89.7845 44.0774 10
  endloop
 endfacet
 facet normal -1 3.8147e-07 1.45519e-13
  outer loop
    vertex -89.7845 24.0774 0
    vertex -89.7845 44.0774 10
    vertex -89.7845 44.0774 0
  endloop
 endfacet
 facet normal 3.8147e-07 1 3.81469e-07
  outer loop
    vertex -69.7845 44.0774 10
    vertex -69.7845 44.0774 0
    vertex -89.7845 44.0774 0
  endloop
 endfacet
 facet normal 3.8147e-07 1 3.8147e-07
  outer loop
    vertex -69.7845 44.0774 10
    vertex -89.7845 44.0774 0
    vertex -89.7845 44.0774 10
  endloop
 endfacet
endsolid solidname
