solid solidname
 facet normal 0 0 -1
  outer loop
    vertex 40.7885 -24.1345 0
    vertex 40.7885 -44.1345 0
    vertex 20.7885 -44.1344 0
  endloop
 endfacet
 facet normal 0 0 -1
  outer loop
    vertex 40.7885 -24.1345 0
    vertex 20.7885 -44.1344 0
    vertex 20.7885 -24.1345 0
  endloop
 endfacet
 facet normal 0 0 1
  outer loop
    vertex 40.7885 -24.1345 10
    vertex 20.7885 -24.1345 10
    vertex 20.7885 -44.1344 10
  endloop
 endfacet
 facet normal 0 0 1
  outer loop
    vertex 40.7885 -24.1345 10
    vertex 20.7885 -44.1344 10
    vertex 40.7885 -44.1345 10
  endloop
 endfacet
 facet normal 1 -5.72205e-07 -3.8147e-07
  outer loop
    vertex 40.7885 -24.1345 0
    vertex 40.7885 -24.1345 10
    vertex 40.7885 -44.1345 10
  endloop
 endfacet
 facet normal 1 0 7.62939e-07
  outer loop
    vertex 40.7885 -24.1345 0
    vertex 40.7885 -44.1345 10
    vertex 40.7885 -44.1345 0
  endloop
 endfacet
 facet normal -3.8147e-07 -1 -3.8147e-07
  outer loop
    vertex 40.7885 -44.1345 0
    vertex 40.7885 -44.1345 10
    vertex 20.7885 -44.1344 10
  endloop
 endfacet
 facet normal -1.90735e-07 -1 -7.27596e-14
  outer loop
    vertex 40.7885 -44.1345 0
    vertex 20.7885 -44.1344 10
    vertex 20.7885 -44.1344 0
  endloop
 endfacet
 facet normal -1 2.86102e-07 -3.8147e-07
  outer loop
    vertex 20.7885 -44.1344 0
    vertex 20.7885 -44.1344 10
    vertex 20.7885 -24.1345 10
  endloop
 endfacet
 facet normal -1 1.90735e-07 -1.90735e-07
  outer loop
    vertex 20.7885 -44.1344 0
    vertex 20.7885 -24.1345 10
    vertex 20.7885 -24.1345 0
  endloop
 endfacet
 facet normal 2.86102e-07 1 5.72204e-07
  outer loop
    vertex 40.7885 -24.1345 10
    vertex 40.7885 -24.1345 0
    vertex 20.7885 -24.1345 0
  endloop
 endfacet
 facet normal 3.8147e-07 1 3.8147e-07
  outer loop
    vertex 40.7885 -24.1345 10
    vertex 20.7885 -24.1345 0
    vertex 20.7885 -24.1345 10
  endloop
 endfacet
endsolid solidname
