solid solidname
 facet normal 0 0 -1
  outer loop
    vertex 98.8809 -25.932 0
    vertex 98.8809 -45.932 0
    vertex 78.8809 -45.932 0
  endloop
 endfacet
 facet normal 0 0 -1
  outer loop
    vertex 98.8809 -25.932 0
    vertex 78.8809 -45.932 0
    vertex 78.8809 -25.932 0
  endloop
 endfacet
 facet normal 0 0 1
  outer loop
    vertex 98.8809 -25.932 10
    vertex 78.8809 -25.932 10
    vertex 78.8809 -45.932 10
  endloop
 endfacet
 facet normal 0 0 1
  outer loop
    vertex 98.8809 -25.932 10
    vertex 78.8809 -45.932 10
    vertex 98.8809 -45.932 10
  endloop
 endfacet
 facet normal 1 -3.8147e-07 -7.6294e-07
  outer loop
    vertex 98.8809 -25.932 0
    vertex 98.8809 -25.932 10
    vertex 98.8809 -45.932 10
  endloop
 endfacet
 facet normal 1 0 0
  outer loop
    vertex 98.8809 -25.932 0
    vertex 98.8809 -45.932 10
    vertex 98.8809 -45.932 0
  endloop
 endfacet
 facet normal -3.8147e-07 -1 -3.8147e-07
  outer loop
    vertex 98.8809 -45.932 0
    vertex 98.8809 -45.932 10
    vertex 78.8809 -45.932 10
  endloop
 endfacet
 facet normal -1.90735e-07 -1 -1.45519e-13
  outer loop
    vertex 98.8809 -45.932 0
    vertex 78.8809 -45.932 10
    vertex 78.8809 -45.932 0
  endloop
 endfacet
 facet normal -1 3.8147e-07 -7.62939e-07
  outer loop
    vertex 78.8809 -45.932 0
    vertex 78.8809 -45.932 10
    vertex 78.8809 -25.932 10
  endloop
 endfacet
 facet normal -1 0 0
  outer loop
    vertex 78.8809 -45.932 0
    vertex 78.8809 -25.932 10
    vertex 78.8809 -25.932 0
  endloop
 endfacet
 facet normal 2.86103e-07 1 5.72204e-07
  outer loop
    vertex 98.8809 -25.932 10
    vertex 98.8809 -25.932 0
    vertex 78.8809 -25.932 0
  endloop
 endfacet
 facet normal 3.8147e-07 1 3.8147e-07
  outer loop
    vertex 98.8809 -25.932 10
    vertex 78.8809 -25.932 0
    vertex 78.8809 -25.932 10
  endloop
 endfacet
endsolid solidname
