solid solidname
 facet normal 0 0 -1
  outer loop
    vertex 40.4131 43.7925 0
    vertex 40.4131 23.7925 0
    vertex 20.4131 23.7925 0
  endloop
 endfacet
 facet normal 0 0 -1
  outer loop
    vertex 40.4131 43.7925 0
    vertex 20.4131 23.7925 0
    vertex 20.4131 43.7925 0
  endloop
 endfacet
 facet normal 0 0 1
  outer loop
    vertex 40.4131 43.7925 10
    vertex 20.4131 43.7925 10
    vertex 20.4131 23.7925 10
  endloop
 endfacet
 facet normal 0 0 1
  outer loop
    vertex 40.4131 43.7925 10
    vertex 20.4131 23.7925 10
    vertex 40.4131 23.7925 10
  endloop
 endfacet
 facet normal 1 -5.72205e-07 -3.8147e-07
  outer loop
    vertex 40.4131 43.7925 0
    vertex 40.4131 43.7925 10
    vertex 40.4131 23.7925 10
  endloop
 endfacet
 facet normal 1 0 7.62939e-07
  outer loop
    vertex 40.4131 43.7925 0
    vertex 40.4131 23.7925 10
    vertex 40.4131 23.7925 0
  endloop
 endfacet
 facet normal -3.8147e-07 -1 -3.8147e-07
  outer loop
    vertex 40.4131 23.7925 0
    vertex 40.4131 23.7925 10
    vertex 20.4131 23.7925 10
  endloop
 endfacet
 facet normal -1.90735e-07 -1 -7.27596e-14
  outer loop
    vertex 40.4131 23.7925 0
    vertex 20.4131 23.7925 10
    vertex 20.4131 23.7925 0
  endloop
 endfacet
 facet normal -1 2.86102e-07 -3.8147e-07
  outer loop
    vertex 20.4131 23.7925 0
    vertex 20.4131 23.7925 10
    vertex 20.4131 43.7925 10
  endloop
 endfacet
 facet normal -1 1.90735e-07 -1.90735e-07
  outer loop
    vertex 20.4131 23.7925 0
    vertex 20.4131 43.7925 10
    vertex 20.4131 43.7925 0
  endloop
 endfacet
 facet normal 3.8147e-07 1 3.8147e-07
  outer loop
    vertex 40.4131 43.7925 10
    vertex 40.4131 43.7925 0
    vertex 20.4131 43.7925 0
  endloop
 endfacet
 facet normal 3.8147e-07 1 3.8147e-07
  outer loop
    vertex 40.4131 43.7925 10
    vertex 20.4131 43.7925 0
    vertex 20.4131 43.7925 10
  endloop
 endfacet
endsolid solidname
