solid solidname
 facet normal 0 0 -1
  outer loop
    vertex -76.4865 -20.8859 0
    vertex -76.4865 -40.8859 0
    vertex -96.4865 -40.8859 0
  endloop
 endfacet
 facet normal 0 0 -1
  outer loop
    vertex -76.4865 -20.8859 0
    vertex -96.4865 -40.8859 0
    vertex -96.4865 -20.8859 0
  endloop
 endfacet
 facet normal 0 0 1
  outer loop
    vertex -76.4865 -20.8859 10
    vertex -96.4865 -20.8859 10
    vertex -96.4865 -40.8859 10
  endloop
 endfacet
 facet normal 0 0 1
  outer loop
    vertex -76.4865 -20.8859 10
    vertex -96.4865 -40.8859 10
    vertex -76.4865 -40.8859 10
  endloop
 endfacet
 facet normal 1 -7.6294e-07 -7.6294e-07
  outer loop
    vertex -76.4865 -20.8859 0
    vertex -76.4865 -20.8859 10
    vertex -76.4865 -40.8859 10
  endloop
 endfacet
 facet normal 1 0 7.62939e-07
  outer loop
    vertex -76.4865 -20.8859 0
    vertex -76.4865 -40.8859 10
    vertex -76.4865 -40.8859 0
  endloop
 endfacet
 facet normal -3.8147e-07 -1 -3.8147e-07
  outer loop
    vertex -76.4865 -40.8859 0
    vertex -76.4865 -40.8859 10
    vertex -96.4865 -40.8859 10
  endloop
 endfacet
 facet normal -1.90735e-07 -1 0
  outer loop
    vertex -76.4865 -40.8859 0
    vertex -96.4865 -40.8859 10
    vertex -96.4865 -40.8859 0
  endloop
 endfacet
 facet normal -1 3.8147e-07 0
  outer loop
    vertex -96.4865 -40.8859 0
    vertex -96.4865 -40.8859 10
    vertex -96.4865 -20.8859 10
  endloop
 endfacet
 facet normal -1 3.8147e-07 1.45519e-13
  outer loop
    vertex -96.4865 -40.8859 0
    vertex -96.4865 -20.8859 10
    vertex -96.4865 -20.8859 0
  endloop
 endfacet
 facet normal 2.86103e-07 1 5.72204e-07
  outer loop
    vertex -76.4865 -20.8859 10
    vertex -76.4865 -20.8859 0
    vertex -96.4865 -20.8859 0
  endloop
 endfacet
 facet normal 3.8147e-07 1 3.8147e-07
  outer loop
    vertex -76.4865 -20.8859 10
    vertex -96.4865 -20.8859 0
    vertex -96.4865 -20.8859 10
  endloop
 endfacet
endsolid solidname
